<svg width="50" height="50" viewBox="0 0 50 50" fill="none" xmlns="http://www.w3.org/2000/svg">
<g clip-path="url(#clip0_379_807)">
<path d="M39.8136 1.19733C39.3777 0.809483 38.8145 0.595209 38.231 0.595215L24.4048 0.595221H11.8917C11.3135 0.595221 10.7551 0.805638 10.3206 1.18719L1.40506 9.01702C0.890321 9.46904 0.595238 10.1209 0.595238 10.806V38.8108C0.595238 39.468 0.866952 40.0961 1.34601 40.5461L10.0889 48.7592C10.5304 49.1739 11.1134 49.4048 11.7191 49.4048H26.1905H38.2809C38.8866 49.4048 39.4696 49.1739 39.9111 48.7591L48.654 40.5461C49.133 40.0961 49.4047 39.468 49.4047 38.8108V10.7991C49.4047 10.1193 49.1142 9.47208 48.6064 9.02023L39.8136 1.19733Z" fill="#725952" stroke="#725952" stroke-width="2"/>
<path d="M39.418 3.7431C39.0911 3.45221 38.6686 3.2915 38.231 3.2915L28.5714 3.29152H13.6092C13.2171 3.29152 12.8359 3.42057 12.5244 3.65876L2.1795 11.57C1.74311 11.9037 1.48461 12.4198 1.47866 12.9691L1.19896 38.7683C1.19355 39.2668 1.39682 39.7449 1.75961 40.087L10.496 48.3233C10.8273 48.6357 11.2655 48.8097 11.721 48.8097H25H38.2142C38.6619 48.8097 39.0933 48.6415 39.4229 48.3384L48.2326 40.2367C48.6002 39.8985 48.8095 39.4218 48.8095 38.9223V12.9001C48.8095 12.3903 48.5916 11.9049 48.2108 11.566L39.418 3.7431Z" fill="#5F443C"/>
<path d="M39.418 1.64202C39.0911 1.35113 38.6686 1.19043 38.231 1.19043L30.3571 1.19044H11.8917C11.4581 1.19044 11.0392 1.34825 10.7134 1.63441L1.79784 9.46424C1.41178 9.80329 1.19048 10.2922 1.19048 10.806V36.8142C1.19048 37.3178 1.40309 37.798 1.77594 38.1364L10.7083 46.2451C11.0369 46.5433 11.4648 46.7086 11.9086 46.7086H26.1905H38.2142C38.6619 46.7086 39.0933 46.5404 39.4229 46.2373L48.2326 38.1356C48.6002 37.7974 48.8095 37.3207 48.8095 36.8211V10.7991C48.8095 10.2892 48.5916 9.80376 48.2108 9.46495L39.418 1.64202Z" fill="#96786F"/>
<mask id="mask0_379_807" style="mask-type:alpha" maskUnits="userSpaceOnUse" x="1" y="1" width="48" height="46">
<path d="M39.418 1.64202C39.0911 1.35113 38.6686 1.19043 38.231 1.19043L24.4048 1.19044H11.8917C11.4581 1.19044 11.0392 1.34825 10.7134 1.63441L1.79784 9.46424C1.41178 9.80329 1.19048 10.2922 1.19048 10.806V36.8142C1.19048 37.3178 1.40309 37.798 1.77594 38.1364L10.7083 46.2451C11.0369 46.5433 11.4648 46.7086 11.9086 46.7086H26.1905H38.2142C38.6619 46.7086 39.0933 46.5404 39.4229 46.2373L48.2326 38.1356C48.6002 37.7974 48.8095 37.3207 48.8095 36.8211V10.7991C48.8095 10.2892 48.5916 9.80376 48.2108 9.46495L39.418 1.64202Z" fill="#96786F"/>
</mask>
<g mask="url(#mask0_379_807)">
<path fill-rule="evenodd" clip-rule="evenodd" d="M6.93726 47.0171C24.9275 50.2228 43.0827 52.3671 61.3131 53.4391C62.2155 51.4678 63.0274 49.4503 63.7494 47.3866C64.1702 46.2008 64.5613 45.0149 64.922 43.7982C65.5988 41.5344 66.1851 39.1781 66.6667 36.8679C63.569 36.6215 60.4863 36.2827 57.3884 35.8977C31.0726 32.6173 5.40344 25.2557 -21.0176 22.2834C-33.7406 20.7269 -46.5358 19.8684 -59.3484 19.7115C-67.3685 19.6686 -75.3816 20.1832 -83.3333 21.2516C-83.3333 23.5309 -83.228 25.7794 -83.0327 28.0125C-83.0327 28.5207 -82.9274 29.0135 -82.8821 29.5526C-82.5899 32.2487 -82.1482 35.6113 -81.5792 38.2606C-77.0679 37.6291 -72.4935 36.7897 -67.9827 36.5741C-60.6923 36.2835 -53.2958 36.9437 -46.0527 37.839C-28.1279 39.9335 -10.792 44.1371 6.99744 47.0478L6.93726 47.0171Z" fill="#89716A"/>
<path fill-rule="evenodd" clip-rule="evenodd" d="M-25.1309 8.78893C-8.64118 10.1015 7.42852 12.1861 23.8579 14.0237C36.5006 15.4821 49.2874 16.8996 61.9601 17.9497L67.8571 18.386C67.7214 16.0671 67.4798 13.3266 67.1327 11.0807C67.0125 10.2494 66.8762 9.43262 66.7107 8.61596C66.5447 7.79923 66.4542 7.3034 66.3185 6.64709C59.831 5.96167 53.3588 5.1887 46.8715 4.37199C38.77 3.36569 30.6835 2.34481 22.5669 1.45518C13.9826 0.478055 5.38316 -0.353234 -3.23132 -0.965762C-18.1822 -2.01581 -33.0426 -2.33666 -47.9633 -1.97206C-53.6359 -1.82622 -59.3236 -1.59288 -65.0262 -1.27202L-66.4143 -1.16994C-71.1363 -0.907429 -75.8583 -0.630328 -80.5655 -0.294897C-81.4595 2.40241 -82.1851 5.57139 -82.7381 8.35274C-79.419 8.04649 -76.1589 7.81024 -72.8399 7.67899C-57.0007 7.1878 -40.9142 7.41382 -25.1309 8.78893Z" fill="#88716A"/>
<path fill-rule="evenodd" clip-rule="evenodd" d="M-34.9548 -46.1779C-17.2782 -46.9281 0.431686 -45.9943 17.9198 -43.3899L29.5499 -41.5748C31.3034 -40.6164 32.9969 -39.5854 34.6455 -38.4963C29.3701 -39.4983 24.1545 -40.5293 18.8191 -41.4877C10.8282 -42.9819 2.76496 -44.0869 -5.34021 -44.7984C-14.4723 -45.5172 -23.6496 -45.5172 -32.7817 -44.7984C-34.9998 -44.6387 -37.2029 -44.4644 -39.421 -44.2612C-37.9223 -44.9291 -36.4236 -45.539 -34.9248 -46.1053L-34.9548 -46.1779ZM48.4936 -26.7925C42.269 -27.2571 36.0393 -27.8186 29.8046 -28.4769C21.6816 -29.4062 13.8433 -31.9764 5.72031 -32.9493C-1.73792 -33.8223 -9.24893 -34.2007 -16.7604 -34.082C-23.8043 -33.9803 -30.8183 -33.4721 -37.8323 -32.7606C-45.5208 -31.9764 -53.1792 -30.96 -60.8524 -30.0161C-60.0435 -30.7857 -59.219 -31.5553 -58.3797 -32.2813C-51.6355 -32.9638 -44.8913 -33.6028 -38.1621 -34.0675C-31.0882 -34.5466 -23.9992 -34.808 -16.8953 -34.7209C-9.30042 -34.6552 -1.71517 -34.1801 5.82523 -33.2978C13.8284 -32.354 21.7416 -30.7567 29.8046 -30.2484C35.2151 -29.8999 40.6104 -29.595 46.0208 -29.3191C46.8451 -28.5204 47.6543 -27.6928 48.4337 -26.836L48.4936 -26.7925ZM-67.1774 -23.1332C-64.9589 -23.1332 -62.681 -23.2929 -60.5226 -23.4236C-53.1642 -23.8012 -45.8954 -24.7305 -38.5967 -25.6018C-31.7368 -26.5305 -24.8249 -27.0542 -17.8994 -27.17C-2.23787 -27.17 13.2139 -24.716 28.7705 -23.3655C36.7637 -22.6685 44.8168 -22.0877 52.9298 -21.623C53.2745 -21.1728 53.6192 -20.7227 53.9489 -20.258L51.4311 -20.5049C43.8626 -21.2164 36.2941 -21.957 28.7106 -22.6685C13.2289 -24.048 -2.1929 -26.4875 -17.7496 -26.5311C-24.7063 -26.4252 -31.6513 -25.9404 -38.5517 -25.079C-45.7605 -24.2949 -52.9544 -23.4381 -60.1935 -23.0606C-62.6363 -22.9299 -65.0643 -22.7992 -67.5071 -22.6394L-67.1774 -23.1332ZM-65.2887 -15.8727C-56.6562 -16.6132 -48.1285 -18.0073 -39.421 -18.4719C-29.0522 -18.9465 -18.6638 -18.8398 -8.30769 -18.1525C0.684624 -17.6152 9.55701 -16.8602 18.5043 -16.2357C27.4517 -15.6113 36.6088 -15.0305 45.6761 -14.5223C49.8125 -14.2899 53.9639 -14.0721 58.1004 -13.8688C58.4451 -13.288 58.7598 -12.7217 59.0896 -12.1408C50.412 -12.7943 41.7944 -13.4913 33.0718 -14.1157C28.236 -14.4738 23.3952 -14.8078 18.5493 -15.1177C8.05833 -15.7856 -2.43269 -16.5697 -12.8488 -17.0199C-21.6751 -17.557 -30.524 -17.6588 -39.361 -17.3248C-48.0086 -16.8602 -56.6562 -16.41 -65.2887 -15.8727ZM63.4809 -2.48441C53.4844 -3.21045 43.5179 -4.15431 33.5515 -5.11269C23.585 -6.0711 13.9033 -7.04396 4.07173 -7.82812C-4.92056 -8.55414 -13.9129 -9.43991 -22.9051 -10.2241C-30.9532 -10.9356 -39.0163 -11.5309 -47.0794 -11.6762C-56.5294 -11.94 -65.9869 -11.5324 -75.375 -10.4564L-75.1054 -11.1534C-68.0167 -11.8359 -60.9125 -12.1989 -53.7487 -12.257C-44.4867 -12.3441 -35.2246 -11.9521 -25.9925 -11.3567C-15.9511 -10.7178 -5.9247 -9.90461 4.10171 -9.04789C17.8149 -7.94426 31.4682 -6.76806 45.1515 -5.79519C50.9665 -5.36924 56.7965 -4.99652 62.6417 -4.67707C62.9411 -3.95102 63.2113 -3.22497 63.4809 -2.48441ZM-79.3768 -1.17752C-74.3708 -1.62767 -69.3351 -1.94714 -64.3893 -2.2085C-37.638 -3.35826 -10.8418 -3.1062 15.8816 -1.45342C32.4874 -0.55312 48.9283 1.84283 65.4143 3.86124C65.6839 4.86318 65.9238 5.89417 66.1482 6.91063C59.7042 6.22813 53.2445 5.45855 46.8001 4.64537C38.752 3.64344 30.7189 2.62696 22.6558 1.74119C14.1281 0.76828 5.58543 -0.0594101 -2.97224 -0.669289C-23.4252 -2.08752 -43.9527 -2.1894 -64.4196 -0.974228C-69.575 -0.669289 -74.7458 -0.393391 -79.9012 -0.0013237C-79.7815 -0.393391 -79.6464 -0.770935 -79.5119 -1.14848L-79.3768 -1.17752ZM-77.4881 50.3718C-66.6375 48.455 -54.7678 49.123 -41.5192 53.1889C-29.2147 56.9643 -16.9252 60.885 -4.54588 64.457C5.34589 67.3915 15.3914 69.8147 25.5483 71.7177C32.1277 72.9082 38.707 73.7505 45.3314 74.3022C44.4021 75.188 43.443 76.0594 42.4688 76.9016C36.339 76.0451 30.2693 74.9124 24.1845 73.5183C14.1581 71.2528 4.32651 68.3487 -5.60997 65.5314C-17.7496 62.032 -29.8592 58.6342 -42.1336 55.5994C-53.0834 52.7011 -64.5625 52.205 -75.7351 54.1472C-76.3494 52.913 -76.9339 51.6497 -77.4881 50.3718ZM-81.5649 37.8547C-77.0685 37.2449 -72.2863 36.3302 -67.7905 36.1269C-60.5244 35.853 -53.5339 36.6912 -46.3151 37.5353C-28.4504 39.5101 -11.0054 44.0262 6.72446 46.7706C24.6648 49.7878 42.7691 51.8047 60.9482 52.8113C60.4232 53.9294 59.8542 55.033 59.2694 56.1221C57.7707 56.035 56.1221 55.9333 54.5634 55.8172C38.1606 54.4074 21.8568 52.0704 5.73531 48.8181C-1.47352 47.4531 -8.66732 45.9139 -15.8462 44.4618C-22.5604 43.0097 -29.3346 41.5576 -36.0339 40.2797C-42.0288 39.1471 -48.0236 38.1307 -54.0185 37.5353C-59.0274 36.9388 -62.7691 37.0449 -67.7905 37.5353C-71.8071 38.029 -77.1887 38.4501 -81.2202 39.1762L-81.5649 37.8547ZM-83.2881 20.7201C-73.8018 19.5538 -64.2387 19.0685 -54.6779 19.2679C-43.6174 19.4277 -32.5568 20.2118 -21.5413 21.1121C-8.24768 22.1867 4.95596 24.1906 18.0997 26.2961C34.3008 28.8808 50.6368 31.6834 67.0178 33.179C66.8077 34.5295 66.5678 35.8654 66.2833 37.1868C63.1809 36.9544 60.0935 36.635 56.9914 36.272C30.7639 33.179 5.18076 26.238 -21.1517 23.4354C-33.832 21.9679 -46.5843 21.1584 -59.3539 21.0105C-67.372 20.9615 -75.3839 21.4467 -83.3333 22.4626V22.1576C-83.3333 21.6784 -83.3333 21.1993 -83.3333 20.7055L-83.2881 20.7201ZM-81.9095 8.15944C-78.6125 7.85931 -75.3101 7.64152 -72.003 7.50598C-56.2688 7.01211 -40.518 7.44854 -24.8385 8.81289C-8.4575 10.1198 7.86345 12.0075 24.1845 13.8371C36.7437 15.2892 49.303 16.6106 61.8923 17.6562L67.7673 18.1208C67.7673 18.934 67.7673 19.7472 67.8571 20.5603L62.7762 20.1537C50.1572 18.9775 37.613 17.5254 25.0837 16.0734C8.37303 14.0259 -8.35262 11.8623 -25.1232 10.265C-40.6748 8.63735 -56.3221 8.03092 -71.9583 8.44985C-75.3554 8.59509 -78.747 8.87098 -82.1345 9.27753C-82.0744 8.90003 -81.9994 8.52247 -81.9095 8.14491V8.15944ZM11.3405 93.0344C4.31153 91.4659 -2.68748 89.7814 -9.64149 88.0249C-18.0977 85.7237 -26.3802 82.8612 -34.4302 79.457C-44.052 75.6094 -53.7188 71.6451 -63.8649 71.2528C-64.2548 70.832 -64.6446 70.4255 -65.0191 69.9897C-53.0293 69.7862 -41.7889 74.1135 -30.2938 78.3826C-21.6571 81.7838 -12.801 84.6356 -3.78154 86.9213C3.06259 88.5278 9.93166 90.0624 16.8258 91.5243C15.0273 92.1195 13.1989 92.657 11.3405 93.1213V93.0344Z" fill="#7A615A"/>
</g>
<path d="M37.3322 7.59698C37.0048 7.30436 36.5811 7.14258 36.142 7.14258H28.0357H15.4108C15.0173 7.14258 14.6348 7.27258 14.3227 7.51234L5.70123 14.1373C5.26779 14.4704 5.01077 14.9837 5.00372 15.5303L4.77198 33.5054C4.76556 34.0038 4.96767 34.4821 5.32948 34.8248L12.5936 41.7062C12.9252 42.0203 13.3648 42.1955 13.8217 42.1955H25H36.1251C36.5743 42.1955 37.0071 42.0261 37.337 41.7213L44.6643 34.9503C45.0301 34.6123 45.2381 34.1369 45.2381 33.6388V15.4636C45.2381 14.9553 45.0214 14.4711 44.6425 14.1323L37.3322 7.59698Z" fill="#6E544C"/>
<path d="M37.3322 6.27476C37.0048 5.98208 36.5811 5.82031 36.142 5.82031L28.0357 5.82032H15.4108C15.0173 5.82032 14.6348 5.95031 14.3227 6.19012L5.70123 12.8151C5.26779 13.1482 5.01077 13.6614 5.00372 14.208L4.77198 32.1832C4.76556 32.6815 4.96767 33.1598 5.32948 33.5026L12.5936 40.3839C12.9252 40.6981 13.3648 40.8732 13.8217 40.8732H25H36.1251C36.5743 40.8732 37.0071 40.7039 37.337 40.399L44.6643 33.6281C45.0301 33.2901 45.2381 32.8146 45.2381 32.3165V14.1414C45.2381 13.633 45.0214 13.1489 44.6425 12.8101L37.3322 6.27476Z" fill="#8F7F54"/>
<path d="M37.3293 4.27978C37.0035 3.99369 36.5848 3.83594 36.1511 3.83594L28.0357 3.83594H14.2929C13.8758 3.83594 13.4719 3.98192 13.1512 4.24856L5.40596 10.6883C4.99792 11.0276 4.7619 11.5307 4.7619 12.0614V30.3441C4.7619 30.84 4.96815 31.3137 5.33125 31.6514L12.596 38.4105C12.9264 38.7179 13.361 38.8888 13.8124 38.8888H25H36.1343C36.578 38.8888 37.0059 38.7237 37.3345 38.4254L44.6524 31.7838C45.0254 31.4453 45.2381 30.9651 45.2381 30.4615V12.0323C45.2381 11.5184 45.0167 11.0294 44.6305 10.6904L37.3293 4.27978Z" fill="#FDE294"/>
<g clip-path="url(#clip1_379_807)">
<path d="M15.2424 6.75859L10.7576 11.2434C10.3392 11.6618 10.3392 12.3402 10.7576 12.7586L33.2424 35.2433C33.6608 35.6617 34.3392 35.6617 34.7576 35.2433L39.2424 30.7585C39.6608 30.3401 39.6608 29.6617 39.2424 29.2433L16.7576 6.75859C16.3392 6.34018 15.6608 6.34018 15.2424 6.75859Z" fill="#A4925F"/>
<path d="M39.2423 11.2429L34.7575 6.7581C34.3391 6.33968 33.6607 6.33968 33.2423 6.7581L10.7575 29.2428C10.3391 29.6612 10.3391 30.3396 10.7575 30.758L15.2423 35.2428C15.6607 35.6612 16.3391 35.6612 16.7575 35.2428L39.2423 12.7581C39.6607 12.3397 39.6607 11.6613 39.2423 11.2429Z" fill="#A4925F"/>
</g>
</g>
<defs>
<clipPath id="clip0_379_807">
<rect width="50" height="50" fill="white"/>
</clipPath>
<clipPath id="clip1_379_807">
<rect width="30" height="30" fill="white" transform="translate(10 6)"/>
</clipPath>
</defs>
</svg>
