<svg width="50" height="50" viewBox="0 0 50 50" fill="none" xmlns="http://www.w3.org/2000/svg">
<g clip-path="url(#clip0_379_891)">
<path d="M40.175 0.616805C39.7285 0.219494 39.1515 -6.09743e-06 38.5538 1.27036e-10L24.3903 6.10597e-06H11.572C10.9797 6.10597e-06 10.4076 0.215555 9.96257 0.606408L0.829574 8.62721C0.302281 9.09026 0 9.75806 0 10.4598V39.1476C0 39.8209 0.278342 40.4643 0.769086 40.9253L9.72526 49.3387C10.1775 49.7635 10.7747 50 11.3952 50H26.2195H38.6049C39.2253 50 39.8225 49.7635 40.2748 49.3386L49.231 40.9252C49.7217 40.4643 50 39.8209 50 39.1476V10.4528C50 9.75642 49.7024 9.09337 49.1823 8.6305L40.175 0.616805Z" fill="#725952" stroke="#725952" stroke-width="2"/>
<path d="M39.7697 3.22432C39.4348 2.92634 39.0021 2.76172 38.5538 2.76172L28.6586 2.76173H13.3314C12.9297 2.76173 12.5392 2.89393 12.2201 3.13793L1.6229 11.2421C1.17586 11.584 0.911062 12.1126 0.904964 12.6753L0.61844 39.1038C0.612897 39.6145 0.821129 40.1043 1.19276 40.4546L10.1423 48.8918C10.4817 49.2119 10.9306 49.3901 11.3971 49.3901H25H38.5365C38.9952 49.3901 39.4371 49.2178 39.7747 48.9072L48.7993 40.6079C49.1759 40.2615 49.3902 39.7732 49.3902 39.2615V12.6047C49.3902 12.0825 49.1671 11.5852 48.7769 11.238L39.7697 3.22432Z" fill="#5F443C"/>
<path d="M39.7697 1.07247C39.4348 0.774485 39.0021 0.609863 38.5538 0.609863L30.4878 0.609875H11.572C11.1278 0.609875 10.6987 0.771534 10.365 1.06467L1.23194 9.08547C0.836464 9.43279 0.609756 9.93358 0.609756 10.4599V37.1025C0.609756 37.6184 0.827556 38.1103 1.2095 38.457L10.3598 46.7634C10.6964 47.0689 11.1346 47.2382 11.5893 47.2382H26.2195H38.5365C38.9952 47.2382 39.4371 47.0659 39.7747 46.7554L48.7993 38.4561C49.1759 38.1097 49.3902 37.6214 49.3902 37.1096V10.4528C49.3902 9.93059 49.1671 9.43328 48.777 9.0862L39.7697 1.07247Z" fill="#96786F"/>
<mask id="mask0_379_891" style="mask-type:alpha" maskUnits="userSpaceOnUse" x="0" y="0" width="50" height="48">
<path d="M39.7697 1.07247C39.4348 0.774485 39.0021 0.609863 38.5538 0.609863L24.3903 0.609875H11.572C11.1278 0.609875 10.6987 0.771534 10.365 1.06467L1.23194 9.08547C0.836464 9.43279 0.609756 9.93358 0.609756 10.4599V37.1025C0.609756 37.6184 0.827556 38.1103 1.2095 38.457L10.3598 46.7634C10.6964 47.0689 11.1346 47.2382 11.5893 47.2382H26.2195H38.5365C38.9952 47.2382 39.4371 47.0659 39.7747 46.7554L48.7993 38.4561C49.1759 38.1097 49.3902 37.6214 49.3902 37.1096V10.4528C49.3902 9.93059 49.1671 9.43328 48.777 9.0862L39.7697 1.07247Z" fill="#96786F"/>
</mask>
<g mask="url(#mask0_379_891)">
<path fill-rule="evenodd" clip-rule="evenodd" d="M11.9845 42.6758C30.4136 45.9597 49.0116 48.1563 67.6867 49.2545C68.6111 47.2351 69.4428 45.1684 70.1824 43.0544C70.6135 41.8396 71.0141 40.6248 71.3836 39.3785C72.0769 37.0594 72.6775 34.6456 73.1708 32.2791C69.9977 32.0267 66.8397 31.6796 63.6659 31.2852C36.7086 27.9248 10.4133 20.3837 -16.6522 17.3389C-29.6855 15.7444 -42.7929 14.8649 -55.9179 14.7042C-64.1336 14.6603 -72.3422 15.1874 -80.4879 16.2819C-80.4879 18.6168 -80.38 20.9201 -80.18 23.2077C-80.18 23.7283 -80.072 24.2332 -80.0257 24.7853C-79.7263 27.5472 -79.2739 30.9918 -78.6909 33.7057C-74.0696 33.0589 -69.3836 32.1989 -64.7629 31.9781C-57.2946 31.6805 -49.7177 32.3567 -42.2979 33.2738C-23.9359 35.4194 -6.17721 39.7256 12.0462 42.7073L11.9845 42.6758Z" fill="#89716A"/>
<path fill-rule="evenodd" clip-rule="evenodd" d="M-20.8658 3.51589C-3.97389 4.86047 12.4878 6.99587 29.3178 8.87831C42.2689 10.3723 55.3677 11.8244 68.3495 12.9001L74.3903 13.347C74.2513 10.9715 74.0037 8.16416 73.6483 5.86349C73.5251 5.0119 73.3855 4.17528 73.2159 3.33866C73.0458 2.50203 72.9531 1.99408 72.8141 1.32179C66.1684 0.619626 59.5383 -0.172181 52.8928 -1.00881C44.5937 -2.03965 36.31 -3.08543 27.9953 -3.99675C19.2017 -4.99771 10.3925 -5.84927 1.56791 -6.47674C-13.7476 -7.55242 -28.9705 -7.88108 -44.2552 -7.5076C-50.0661 -7.35821 -55.8925 -7.11913 -61.7342 -6.79047L-63.1562 -6.6859C-67.9934 -6.41699 -72.8306 -6.13313 -77.6525 -5.78952C-78.5684 -3.02642 -79.3117 0.219846 -79.8781 3.06903C-76.4781 2.75529 -73.1385 2.51332 -69.7385 2.37886C-53.513 1.87567 -37.0341 2.10721 -20.8658 3.51589Z" fill="#88716A"/>
<path fill-rule="evenodd" clip-rule="evenodd" d="M-30.9294 -52.7919C-12.8216 -53.5604 5.32027 -52.6038 23.235 -49.9359L35.1487 -48.0765C36.945 -47.0948 38.6798 -46.0386 40.3686 -44.923C34.9645 -45.9494 29.6217 -47.0055 24.1562 -47.9873C15.9704 -49.518 7.71043 -50.6499 -0.5924 -51.3788C-9.94727 -52.1151 -19.3484 -52.1151 -28.7032 -51.3788C-30.9754 -51.2151 -33.2323 -51.0366 -35.5045 -50.8284C-33.9692 -51.5126 -32.4339 -52.1374 -30.8986 -52.7176L-30.9294 -52.7919ZM54.5545 -32.9337C48.178 -33.4096 41.7965 -33.9848 35.4097 -34.6592C27.0885 -35.6112 19.0591 -38.244 10.7379 -39.2407C3.09776 -40.1349 -4.5965 -40.5226 -12.2912 -40.401C-19.5069 -40.2968 -26.692 -39.7762 -33.8771 -39.0473C-41.753 -38.244 -49.5982 -37.2028 -57.4588 -36.2359C-56.6298 -37.0243 -55.7854 -37.8127 -54.9256 -38.5564C-48.0169 -39.2556 -41.1082 -39.9101 -34.2149 -40.3861C-26.9684 -40.877 -19.7065 -41.1447 -12.4293 -41.0554C-4.6492 -40.9881 3.12106 -40.5015 10.8454 -39.5977C19.0437 -38.6308 27.15 -36.9946 35.4097 -36.4739C40.9521 -36.1169 46.479 -35.8045 52.0213 -35.5219C52.8657 -34.7038 53.6947 -33.8559 54.4931 -32.9783L54.5545 -32.9337ZM-63.9379 -29.1851C-61.6653 -29.1851 -59.3318 -29.3487 -57.1211 -29.4826C-49.5829 -29.8694 -42.1368 -30.8214 -34.66 -31.7139C-27.6328 -32.6653 -20.5524 -33.2018 -13.4579 -33.3204C2.58561 -33.3204 18.4142 -30.8065 34.3503 -29.4231C42.5385 -28.7091 50.788 -28.1141 59.0989 -27.6381C59.452 -27.177 59.8051 -26.7159 60.1429 -26.2398L57.5637 -26.4928C49.8105 -27.2216 42.0574 -27.9803 34.2889 -28.7091C18.4296 -30.1223 2.63167 -32.6213 -13.3045 -32.6659C-20.4308 -32.5574 -27.5452 -32.0609 -34.614 -31.1784C-41.9986 -30.3751 -49.368 -29.4975 -56.7833 -29.1107C-59.2858 -28.9769 -61.7732 -28.843 -64.2757 -28.6793L-63.9379 -29.1851ZM-62.0031 -21.7476C-53.1601 -22.5062 -44.4244 -23.9342 -35.5045 -24.4102C-24.8828 -24.8963 -14.2409 -24.787 -3.63224 -24.0829C5.5794 -23.5326 14.6682 -22.7591 23.8337 -22.1195C32.9993 -21.4798 42.3798 -20.8848 51.6682 -20.3642C55.9056 -20.1262 60.1582 -19.9031 64.3958 -19.6948C64.7489 -19.0998 65.0714 -18.5197 65.4086 -17.9246C56.5197 -18.594 47.6919 -19.3081 38.7566 -19.9477C33.8028 -20.3146 28.8439 -20.6567 23.8799 -20.9741C13.1329 -21.6583 2.38603 -22.4616 -8.2841 -22.9227C-17.3258 -23.4729 -26.3905 -23.5772 -35.443 -23.2351C-44.3016 -22.7591 -53.1601 -22.2979 -62.0031 -21.7476ZM69.9074 -8.0327C59.667 -8.77648 49.4574 -9.74337 39.2479 -10.7251C29.0383 -11.7069 19.1205 -12.7035 9.0491 -13.5068C-0.162514 -14.2505 -9.37415 -15.1579 -18.5858 -15.9612C-26.8302 -16.69 -35.0899 -17.2999 -43.3497 -17.4487C-53.0302 -17.719 -62.7184 -17.3014 -72.3354 -16.1992L-72.0592 -16.9132C-64.7976 -17.6123 -57.5203 -17.9842 -50.1816 -18.0437C-40.6937 -18.1329 -31.2057 -17.7313 -21.7484 -17.1214C-11.4622 -16.4669 -1.19115 -15.6339 9.07983 -14.7563C23.1275 -13.6257 37.1138 -12.4209 51.1308 -11.4243C57.0878 -10.9879 63.0598 -10.6061 69.0477 -10.2789C69.3544 -9.53514 69.6312 -8.79136 69.9074 -8.0327ZM-76.4348 -6.69397C-71.3068 -7.15508 -66.1482 -7.48233 -61.0821 -7.75008C-33.678 -8.92788 -6.22827 -8.66971 21.147 -6.9766C38.1578 -6.05434 54.9998 -3.59995 71.8879 -1.53231C72.1641 -0.505936 72.4098 0.550201 72.6397 1.59146C66.0385 0.89233 59.4213 0.103954 52.8196 -0.729057C44.5752 -1.75544 36.3462 -2.7967 28.0864 -3.70407C19.3508 -4.70072 10.5997 -5.54859 1.83333 -6.17334C-19.1185 -7.62618 -40.1467 -7.73051 -61.1128 -6.48572C-66.394 -6.17334 -71.6909 -5.89072 -76.972 -5.48909C-76.8495 -5.89072 -76.7111 -6.27747 -76.5733 -6.66422L-76.4348 -6.69397ZM-74.5001 46.1126C-63.3848 44.1491 -51.2256 44.8334 -37.6538 48.9984C-25.0492 52.8659 -12.46 56.8822 0.221298 60.5414C10.3543 63.5475 20.6449 66.0298 31.0496 67.9792C37.7894 69.1987 44.5292 70.0615 51.3151 70.6267C50.3632 71.534 49.3807 72.4267 48.3827 73.2895C42.1035 72.4121 35.8857 71.2517 29.6524 69.8237C19.3815 67.5029 9.31007 64.5279 -0.868744 61.642C-13.3045 58.0573 -25.7094 54.5765 -38.2833 51.4677C-49.5001 48.4987 -61.259 47.9906 -72.7044 49.9801C-73.3336 48.7158 -73.9324 47.4217 -74.5001 46.1126ZM-78.6763 33.2903C-74.0702 32.6655 -69.1714 31.7286 -64.5659 31.5203C-57.1229 31.2397 -49.9616 32.0983 -42.5667 32.9631C-24.2663 34.9861 -6.39572 39.6122 11.7665 42.4236C30.1444 45.5144 48.6903 47.5805 67.3129 48.6117C66.7751 49.757 66.1922 50.8875 65.5934 52.0032C64.058 51.9139 62.369 51.8098 60.7726 51.6908C43.9694 50.2466 27.268 47.8526 10.7532 44.521C3.3686 43.1228 -4.00069 41.546 -11.3546 40.0584C-18.2326 38.5709 -25.1721 37.0834 -32.0347 35.7744C-38.1758 34.6142 -44.3169 33.573 -50.458 32.9631C-55.5891 32.352 -59.4222 32.4607 -64.5659 32.9631C-68.6806 33.4688 -74.1934 33.9002 -78.3233 34.6439L-78.6763 33.2903ZM-80.4416 15.7377C-70.7239 14.543 -60.9275 14.0458 -51.1335 14.2502C-39.8032 14.4138 -28.4729 15.217 -17.1887 16.1393C-3.57082 17.2401 9.9549 19.2928 23.4192 21.4497C40.0155 24.0975 56.7499 26.9684 73.5306 28.5005C73.3153 29.8839 73.0696 31.2524 72.7781 32.6061C69.6001 32.368 66.4373 32.0408 63.2592 31.6689C36.3923 28.5005 10.1852 21.3902 -16.7895 18.5193C-29.7792 17.0159 -42.8425 16.1867 -55.9235 16.0352C-64.1373 15.985 -72.3446 16.482 -80.4879 17.5227V17.2103C-80.4879 16.7194 -80.4879 16.2286 -80.4879 15.7228L-80.4416 15.7377ZM-79.0294 2.87072C-75.6519 2.5633 -72.269 2.34018 -68.8812 2.20134C-52.7632 1.69538 -36.6282 2.14247 -20.5662 3.5401C-3.78576 4.87886 12.9333 6.8126 29.6524 8.68687C42.518 10.1744 55.3836 11.528 68.28 12.5991L74.2983 13.075C74.2983 13.908 74.2983 14.7411 74.3903 15.5741L69.1854 15.1575C56.2587 13.9527 43.4085 12.4652 30.5736 10.9777C13.4553 8.88028 -3.6783 6.66388 -20.858 5.0276C-36.7888 3.36029 -52.8178 2.73908 -68.8354 3.16821C-72.3153 3.31696 -75.7897 3.5996 -79.2598 4.0161C-79.1983 3.62935 -79.1214 3.24259 -79.0294 2.85584V2.87072ZM16.4951 89.8157C9.29477 88.209 2.12504 86.4834 -4.99863 84.684C-13.661 82.3267 -22.1456 79.3944 -30.392 75.9072C-40.2485 71.9657 -50.151 67.9048 -60.5447 67.5029C-60.9439 67.0718 -61.3431 66.6554 -61.7269 66.209C-49.4448 66.0005 -37.9302 70.4334 -26.1547 74.8066C-17.3073 78.2907 -8.23513 81.2121 1.00428 83.5535C8.01537 85.1993 15.052 86.7712 22.1142 88.2688C20.2719 88.8785 18.3989 89.4292 16.4951 89.9048V89.8157Z" fill="#7A615A"/>
</g>
<path d="M37.633 7.17301C37.2977 6.87325 36.8636 6.70752 36.4138 6.70752H28.1098H15.177C14.7738 6.70752 14.382 6.84069 14.0623 7.0863L5.23054 13.8729C4.78652 14.2141 4.52324 14.7399 4.51602 15.2998L4.27863 33.7134C4.27205 34.2239 4.47909 34.7139 4.84972 35.0649L12.291 42.1141C12.6308 42.4359 13.081 42.6154 13.549 42.6154H25H36.3965C36.8567 42.6154 37.3 42.4419 37.638 42.1296L45.144 35.1935C45.5187 34.8473 45.7318 34.3602 45.7318 33.85V15.2315C45.7318 14.7108 45.5098 14.2148 45.1216 13.8678L37.633 7.17301Z" fill="#6E544C"/>
<path d="M37.633 5.81807C37.2977 5.51825 36.8636 5.35254 36.4138 5.35254L28.1098 5.35255H15.177C14.7738 5.35255 14.382 5.48571 14.0623 5.73136L5.23054 12.5179C4.78652 12.8591 4.52324 13.3849 4.51602 13.9448L4.27863 32.3584C4.27205 32.8689 4.47909 33.3589 4.84972 33.71L12.291 40.7591C12.6308 41.081 13.081 41.2604 13.549 41.2604H25H36.3965C36.8567 41.2604 37.3 41.0869 37.638 40.7746L45.144 33.8385C45.5187 33.4923 45.7318 33.0053 45.7318 32.495V13.8765C45.7318 13.3558 45.5098 12.8598 45.1216 12.5128L37.633 5.81807Z" fill="#8F7F54"/>
<g style="mix-blend-mode:soft-light">
<path fill-rule="evenodd" clip-rule="evenodd" d="M38.5538 0.609863C39.0021 0.609863 39.4348 0.774485 39.7697 1.07247L48.777 9.0862C49.1671 9.43328 49.3902 9.93059 49.3902 10.4528V12.6049V37.1096V39.2617C49.3902 39.7734 49.1759 40.2618 48.7993 40.6082L39.7747 48.9075C39.4371 49.218 38.9952 49.3903 38.5365 49.3903H25H11.3971C10.9306 49.3903 10.4817 49.2121 10.1423 48.8921L1.19277 40.4548C0.821135 40.1045 0.612903 39.6147 0.618446 39.104L0.636744 37.4157C0.618909 37.313 0.609756 37.2083 0.609756 37.1025V10.4599C0.609756 9.93358 0.836464 9.43279 1.23194 9.08547L10.365 1.06467C10.6987 0.771534 11.1278 0.609875 11.572 0.609875H30.4878L38.5538 0.609863Z" fill="#96786F"/>
</g>
<path d="M37.6301 3.77449C37.2963 3.48143 36.8674 3.31982 36.4232 3.31982L28.1098 3.31983H14.0317C13.6045 3.31983 13.1907 3.46937 12.8623 3.74251L4.92806 10.3393C4.51007 10.6869 4.2683 11.2023 4.2683 11.7459V30.4745C4.2683 30.9825 4.47958 31.4677 4.85153 31.8137L12.2935 38.7376C12.632 39.0526 13.0771 39.2276 13.5395 39.2276H25H36.406C36.8605 39.2276 37.2988 39.0584 37.6354 38.7529L45.1318 31.9493C45.5139 31.6026 45.7318 31.1107 45.7318 30.5948V11.7161C45.7318 11.1897 45.505 10.6887 45.1094 10.3414L37.6301 3.77449Z" fill="#FDE294"/>
<g style="mix-blend-mode:hard-light">
<path d="M36.3466 3.31982C36.8402 3.31982 37.3168 3.49938 37.6877 3.82501L45.0402 10.2807C45.4798 10.6666 45.7318 11.2232 45.7318 11.8081V32.4059C45.7318 32.9728 45.495 33.5139 45.0787 33.8987L37.6964 40.7204C37.3208 41.0674 36.8283 41.2602 36.317 41.2602H13.63C13.11 41.2602 12.6097 41.0608 12.2322 40.7032L4.91431 33.7709C4.5025 33.3808 4.27245 32.8364 4.27976 32.2692L4.29947 30.7407C4.27887 30.6244 4.2683 30.5058 4.2683 30.386V11.8413C4.2683 11.2372 4.53693 10.6645 5.00138 10.2784L12.8057 3.78947C13.1708 3.48598 13.6305 3.31983 14.1052 3.31983L36.3466 3.31982Z" fill="#FDE294"/>
</g>
<g clip-path="url(#clip1_379_891)">
<path d="M15.2424 6.75859L10.7576 11.2434C10.3392 11.6618 10.3392 12.3402 10.7576 12.7586L33.2424 35.2433C33.6608 35.6617 34.3392 35.6617 34.7576 35.2433L39.2424 30.7585C39.6608 30.3401 39.6608 29.6617 39.2424 29.2433L16.7576 6.75859C16.3392 6.34018 15.6608 6.34018 15.2424 6.75859Z" fill="#A4925F"/>
<path d="M39.2423 11.2429L34.7575 6.7581C34.3391 6.33968 33.6607 6.33968 33.2423 6.7581L10.7575 29.2428C10.3391 29.6612 10.3391 30.3396 10.7575 30.758L15.2423 35.2428C15.6607 35.6612 16.3391 35.6612 16.7575 35.2428L39.2423 12.7581C39.6607 12.3397 39.6607 11.6613 39.2423 11.2429Z" fill="#A4925F"/>
</g>
</g>
<defs>
<clipPath id="clip0_379_891">
<rect width="50" height="50" fill="white"/>
</clipPath>
<clipPath id="clip1_379_891">
<rect width="30" height="30" fill="white" transform="translate(10 6)"/>
</clipPath>
</defs>
</svg>
