<svg width="393" height="852" viewBox="0 0 393 852" fill="none" xmlns="http://www.w3.org/2000/svg">
<path d="M408.769 40.5215H311.762H241.903H239.924H161.181H159.195H144.896H142.918H-7.67198L-32 146.743V343.3V345.292V610.027V611.977V794.025L-7.67198 914.754H140.626H142.605H159.195H161.181H239.924H241.903H309.472H408.769L433.105 794.025V611.977V610.027V345.292V343.3V146.743L408.769 40.5215Z" fill="#473835"/>
<path d="M408.583 -62.0176H311.762H241.903H239.924H161.181H159.195H144.896H142.918H-7.47782L-32 58.1258V250.264V252.515V557.755V559.96V761.572L-7.55361 885.017L140.626 882.302H142.605H159.195H161.181H239.924H241.903H309.472L408.662 881.16L433.105 761.572V559.96V557.755V252.515V250.264V58.1258L408.583 -62.0176Z" fill="#6E544C"/>
<path d="M400.915 -16.0371H307.644H240.472H238.562H162.855H160.953H147.194H145.292H0.50321L-22.8909 88.4203V281.86V283.795V510.78V512.763V706.151L0.50321 810.661H143.092H144.993H160.953H162.855H238.562H240.472H305.436H400.915L424.316 706.151V512.763V510.78V283.795V281.86V88.4203L400.915 -16.0371Z" fill="#977970"/>
<g opacity="0.5">
<mask id="mask0_157_669" style="mask-type:luminance" maskUnits="userSpaceOnUse" x="-23" y="-109" width="448" height="1020">
<g opacity="0.5">
<path d="M400.927 -108.663H307.648H240.476H238.575H162.859H160.958H147.207H145.304H0.515509L-22.8865 -4.20577V189.283V191.169V611.079V613.013V806.453L0.515509 910.912H143.096H145.005H160.958H162.859H238.575H240.476H305.448H400.927L424.32 806.453V613.013V611.079V191.169V189.283V-4.20577L400.927 -108.663Z" fill="white"/>
</g>
</mask>
<g mask="url(#mask0_157_669)">
<g style="mix-blend-mode:multiply" opacity="0.5">
<path fill-rule="evenodd" clip-rule="evenodd" d="M429.483 -375.833C423.887 -381.252 418.31 -386.306 412.752 -390.994C380.811 -418.227 348.513 -436.884 316.22 -451.232C281.902 -466.434 247.519 -476.759 213.128 -485.457C178.863 -494.156 144.328 -503.992 110.28 -524.803C81.6839 -542.159 53.53 -568.01 26.0954 -610.405L24.8613 -612.315C27.8575 -625.864 30.9197 -638.966 34.0479 -651.621C92.3948 -559.922 152.597 -536.021 213.412 -506.349C247.122 -490.091 280.853 -479.929 314.663 -470.174C345.021 -461.435 375.419 -452.533 405.625 -435.136C411.274 -431.884 416.906 -428.321 422.52 -424.446C424.909 -408.513 427.222 -392.254 429.456 -375.67L429.483 -375.833ZM465.978 40.4716C429.958 -16.8403 393.389 -66.6188 356.273 -108.864C327.783 -141.382 299.101 -169.225 270.294 -194.223C243.163 -217.879 215.946 -238.934 188.729 -260.192C141.212 -297.1 93.8003 -334.21 46.8379 -385.141C29.0586 -404.448 11.2001 -423.389 -6.44722 -444.972C-5.49026 -451.07 -4.52015 -457.167 -3.54335 -463.101C14.0842 -437.412 31.9361 -415.219 50.0058 -395.384C95.675 -345.103 142.34 -308.359 188.598 -272.427C216.018 -251.128 243.512 -232.227 270.967 -211.863C300.065 -190.321 329.089 -167.152 357.956 -139.065C389.516 -108.417 420.785 -72.201 451.671 -28.9527C455.529 -23.5329 459.383 -18.0055 463.233 -12.369C464.21 5.10907 465.11 22.7227 465.932 40.4716H465.978ZM471.76 399.302C408.568 296.465 343.945 216.391 278.669 147.658C225.47 91.5651 171.946 42.8291 118.443 -5.94647C84.1582 -37.1635 49.7748 -65.3317 15.6879 -100.613C-2.63922 -119.432 -21.2171 -140.569 -39.5508 -165.607L-39.3066 -168.453C-21.6791 -161.421 1.72304 -127.562 21.7793 -109.352C54.0051 -80.2084 86.5612 -49.8859 118.793 -20.4984C146.756 4.94666 174.784 28.7251 202.806 52.666C258.553 100.06 314.32 147.251 369.519 208.221C404.133 246.389 438.459 290.043 472.255 341.746C472.169 361.012 472.011 380.238 471.76 399.302ZM456.416 623.957C413.188 556.076 369.749 491.326 325.842 434.258C235.672 317.033 142.651 267.931 50.9495 187.166C12.9556 153.673 -25.0911 114.002 -62.1083 60.4705C-62.062 59.4136 -62.0093 58.3567 -61.963 57.2998C-51.7733 73.0704 -48.4009 46.488 -37.9801 59.8198C4.8447 114.449 59.3706 175.582 103.264 202.937C141.542 226.838 176.031 259.843 214.27 285.572C253.102 311.79 291.663 344.753 329.538 394.018C372.792 450.232 416.152 504.943 459.082 566.604C458.283 585.87 457.386 604.974 456.442 623.957H456.416ZM-59.0856 258.135C-29.6448 293.823 0.370193 320.894 29.9364 345.161C71.7383 379.466 113.751 407.919 155.448 445.72C212.798 497.749 270.122 549.898 327.037 612.738C369.934 660.092 412.555 713.748 454.634 775.734C453.315 791.99 451.939 808.07 450.509 823.982C411.572 766.79 372.231 716.713 332.601 672.161C278.662 611.478 224.302 560.832 169.881 511.405C164.073 505.986 158.265 500.716 152.458 495.594C110.221 457.304 67.8511 421.942 25.7457 380.157C-2.63265 351.826 -31.1693 320.854 -59.2902 283.54C-59.2374 275.004 -59.1692 266.468 -59.0856 257.932V258.135ZM-58.6963 409.382C-44.6171 424.422 -30.5072 438.58 -16.3665 451.858C37.7899 503.073 92.2433 544.451 146.551 592.333C165.955 609.432 185.35 626.709 204.74 644.158C252.415 687.443 299.946 733.869 347.06 789.794C378.738 827.407 410.113 869.544 441.184 916.203C439.516 931.112 437.79 945.89 436.003 960.55C405.896 915.296 375.5 874.572 344.817 838.372C298.025 782.929 250.818 736.511 203.459 693.504C183.556 675.374 163.631 657.61 143.687 640.213C109.158 609.771 74.6355 579.245 40.212 546.28C7.346 514.657 -25.4937 482.14 -58.0825 444.339C-58.3201 432.686 -58.5246 420.966 -58.6963 409.179V409.382ZM-52.3804 609.445C-10.506 652.853 31.7578 688.827 73.9755 723.622C155.732 791.053 237.606 854.181 318.742 937.67C353.594 973.476 388.354 1013.03 422.758 1058.35C420.277 1075.01 417.713 1091.34 415.07 1107.33C302.704 954.658 187.383 851.253 72.8997 743.867C31.2563 704.841 -10.44 665.742 -51.8327 620.298C-52.0175 616.64 -52.2155 612.941 -52.3937 609.243L-52.3804 609.445ZM-42.8044 761.542C-26.4638 780.514 -10.1188 798.533 6.23066 815.609C73.2496 886.495 140.75 946.973 208.099 1010.23C253.319 1052.66 298.513 1096.19 343.464 1144.77C361.383 1164.11 379.264 1184.44 397.105 1205.73C393.238 1224.71 389.254 1243.19 385.154 1261.18C326.628 1187 267.68 1121.15 208.495 1058.43C183.637 1032.09 158.762 1006.1 133.873 980.473C83.6634 927.951 33.2362 879.095 -16.8746 823.938C-24.5169 815.536 -32.1571 806.972 -39.795 798.248C-40.8377 786.003 -41.8409 773.699 -42.8044 761.345V761.542ZM-13.1722 1035.67C-4.88306 1044.85 3.40602 1053.85 11.6951 1062.66C71.5403 1126.11 131.808 1180.17 192.247 1229.31C237.884 1266.38 283.394 1308.85 328.325 1362.39C335.641 1371.17 342.944 1380.2 350.235 1389.5C342.901 1412.13 335.331 1433.06 327.525 1452.29C302.772 1422.49 277.939 1393.9 253.023 1366.54C231.262 1342.52 209.483 1318.88 187.686 1295.61C127.775 1231.14 67.8841 1165.98 8.30952 1094.64C3.13541 1088.23 -2.0387 1081.87 -7.21281 1075.59C-9.25424 1062.41 -11.2341 1049.04 -13.1524 1035.46L-13.1722 1035.67ZM62.4328 1388.57C74.8753 1402.9 87.3136 1417.21 99.7465 1431.49C141.104 1478.96 182.343 1528.9 223.464 1581.31L228.122 1587.33C222.878 1589.36 217.599 1590.65 212.283 1591.19C174.006 1550.54 135.649 1511.4 97.5296 1467.66L86.7262 1455.22C78.3664 1434.98 70.2753 1412.76 62.4527 1388.57H62.4328ZM357.376 -730.842C341.986 -734.906 326.595 -740.719 311.225 -746.287C280.134 -757.587 249.076 -768.44 217.926 -775.471L216.296 -775.837C183.212 -783.276 150.062 -790.918 117.157 -809.94C108.042 -815.184 98.7968 -820.305 89.5505 -826.199C91.0351 -829.695 92.5341 -833.109 94.0321 -836.482C98.3923 -833.773 102.757 -831.307 107.125 -829.085C167.182 -798.681 228.089 -821.647 288.37 -804.9C303.16 -800.835 317.969 -796.039 332.773 -793.275L336.732 -792.502C343.82 -773.534 350.699 -752.926 357.369 -730.679L357.376 -730.842Z" fill="#886759" fill-opacity="0.3"/>
</g>
<g style="mix-blend-mode:multiply" opacity="0.4">
<path fill-rule="evenodd" clip-rule="evenodd" d="M202.748 53.7437C245.263 89.9282 287.79 126.153 330.068 168.367C343.273 181.57 356.438 195.397 369.564 209.849C404.149 248.111 438.443 291.752 472.21 343.501C472.21 335.352 472.255 327.61 472.255 319.665C472.255 311.719 472.255 303.365 472.21 295.216C471.87 209.383 469.754 124.169 465.917 41.6415C429.932 -15.8672 393.398 -65.7561 356.313 -108.025C327.81 -140.623 299.114 -168.536 270.293 -193.596C243.15 -217.311 215.92 -238.418 188.692 -259.73C141.152 -296.729 93.7189 -333.931 46.7339 -384.989C28.9992 -404.262 11.2116 -423.25 -6.4175 -444.766C-7.93174 -435.068 -9.41733 -425.275 -10.8744 -415.387C-20.0031 -353.596 -28.1013 -286.295 -35.0467 -214.499L-35.5551 -209.202C-36.8756 -195.47 -38.1169 -181.575 -39.3186 -167.599C-37.8704 -165.561 -36.4178 -163.565 -34.9608 -161.609C-16.0904 -136.223 3.12335 -116.704 21.7164 -99.8756C53.9571 -70.6595 86.4754 -48.9001 118.696 -19.4397C146.672 6.069 174.713 29.906 202.748 53.907V53.7437Z" fill="#D4AC7B" fill-opacity="0.5"/>
</g>
<g style="mix-blend-mode:multiply" opacity="0.4">
<path fill-rule="evenodd" clip-rule="evenodd" d="M414.889 1106.24C302.526 953.582 187.205 849.98 72.7298 742.762C33.46 706.151 -5.83629 669.102 -44.9147 626.878L-51.8932 619.149C-50.225 652.012 -48.2906 684.34 -46.0899 716.12C-45.2316 728.563 -44.3337 740.969 -43.3962 753.214C-43.2179 755.578 -43.0397 757.934 -42.8548 760.291L-37.0977 766.842C-22.7225 783.383 -8.34516 799.229 6.03443 814.394C23.0638 832.399 40.115 849.819 57.1883 866.66C107.365 916.24 157.714 961.919 207.982 1009.03C253.221 1051.49 298.432 1095.05 343.4 1143.66C361.274 1162.99 379.112 1183.21 396.911 1204.31C399.01 1193.92 401.079 1183.38 403.117 1172.7C407.189 1151.17 411.112 1128.99 414.889 1106.16V1106.24Z" fill="#D4AC7B" fill-opacity="0.5"/>
</g>
</g>
</g>
<path d="M1.92548 820.351L-7.55261 885.009L0.188887 810.537C0.286856 809.797 0.407674 809.182 0.544208 808.729C0.680741 808.275 0.830539 807.997 0.984905 807.894C1.13916 807.799 1.29509 807.894 1.44366 808.165C1.59234 808.443 1.73065 808.89 1.85092 809.497C1.97106 810.097 2.07082 810.844 2.14438 811.686C2.21794 812.52 2.26386 813.442 2.27958 814.394C2.29529 815.345 2.28036 816.304 2.23577 817.219C2.1913 818.134 2.11785 818.983 2.01977 819.722L1.92548 820.351Z" fill="#91766E"/>
<path d="M400.912 818.376L424.314 713.866V88.4203L400.912 -16.0371H0.501069L-22.8931 88.4203V713.866L0.501069 818.376H400.912Z" stroke="#AD938B" stroke-width="3" stroke-miterlimit="10" stroke-linecap="round"/>
</svg>
